<svg xmlns="http://www.w3.org/2000/svg" xmlns:xlink="http://www.w3.org/1999/xlink" width="23" height="23" viewBox="0 0 23 23">
  <defs>
    <clipPath id="clip-path">
      <rect id="Rectangle_31" data-name="Rectangle 31" width="9.569" height="11.164" transform="translate(0 0)" fill="#5d5d5d"/>
    </clipPath>
  </defs>
  <g id="Delete" transform="translate(-1207 -348)">
    <rect id="Rectangle_33" data-name="Rectangle 33" width="23" height="23" rx="6" transform="translate(1207 348)" fill="#efefef"/>
    <g id="Group_31" data-name="Group 31" transform="translate(1210.339 349.979)">
      <g id="Group_23" data-name="Group 23" transform="translate(4 3.879)" clip-path="url(#clip-path)">
        <path id="Path_41" data-name="Path 41" d="M1.32,11.94a1.218,1.218,0,0,0,1.294,1.113H8.059A1.218,1.218,0,0,0,9.353,11.94V4.565H1.32Zm6-6.4H8.3V11.97a.237.237,0,0,1-.24.232h-.5a.237.237,0,0,1-.24-.232Zm-2.507,0H5.8V11.97a.237.237,0,0,1-.24.232h-.5a.237.237,0,0,1-.24-.232Zm-2.475,0h.984V11.97a.237.237,0,0,1-.24.232h-.5a.237.237,0,0,1-.24-.232Z" transform="translate(-0.546 -1.889)" fill="#5d5d5d"/>
        <path id="Path_42" data-name="Path 42" d="M7.5.891,6.206,0H3.364L2.07.891H0V2.027H9.569V.891Z" transform="translate(0 0)" fill="#5d5d5d"/>
      </g>
    </g>
  </g>
</svg>
