<svg xmlns="http://www.w3.org/2000/svg" xmlns:xlink="http://www.w3.org/1999/xlink" width="23" height="23" viewBox="0 0 23 23">
  <defs>
    <clipPath id="clip-path">
      <rect id="Rectangle_30" data-name="Rectangle 30" width="12.448" height="11.822" fill="#606060"/>
    </clipPath>
  </defs>
  <g id="Edit" transform="translate(-1207 -348)">
    <rect id="Rectangle_33" data-name="Rectangle 33" width="23" height="23" rx="6" transform="translate(1207 348)" fill="#efefef"/>
    <g id="Group_30" data-name="Group 30" transform="translate(1212.276 353.589)">
      <g id="Group_21" data-name="Group 21" transform="translate(0 0)" clip-path="url(#clip-path)">
        <path id="Path_38" data-name="Path 38" d="M15.828,2.54S14.256.823,13.592.258,12.559.233,12.559.233L10.936,1.905l3.114,3.4A15.3,15.3,0,0,0,16,3.513a.73.73,0,0,0-.17-.973" transform="translate(-3.679 0)" fill="#606060"/>
        <path id="Path_39" data-name="Path 39" d="M.929,9.256l3.212,3.372,5.944-5.515L6.81,3.875Z" transform="translate(-0.313 -1.304)" fill="#606060"/>
        <path id="Path_40" data-name="Path 40" d="M0,15.854l3.832-.494L.616,11.984Z" transform="translate(0 -4.032)" fill="#606060"/>
      </g>
    </g>
  </g>
</svg>
