<svg id="ExporttoExcel" xmlns="http://www.w3.org/2000/svg" xmlns:xlink="http://www.w3.org/1999/xlink" width="32" height="32" viewBox="0 0 32 32">
  <defs>
    <clipPath id="clip-path">
      <rect id="Rectangle_13" data-name="Rectangle 13" width="32" height="32" fill="none"/>
    </clipPath>
  </defs>
  <g id="Group_5" data-name="Group 5" clip-path="url(#clip-path)">
    <path id="Path_32" data-name="Path 32" d="M27.42,32H4.58A4.594,4.594,0,0,1,0,27.42V4.58A4.594,4.594,0,0,1,4.58,0H27.42A4.594,4.594,0,0,1,32,4.58V27.42A4.594,4.594,0,0,1,27.42,32" fill="#179426"/>
    <path id="Path_33" data-name="Path 33" d="M14.437,4.567V7.3h3.328V19.493H14.437v2.733h5.4V4.567Z" transform="translate(7.605 2.406)" fill="#fff"/>
    <rect id="Rectangle_10" data-name="Rectangle 10" width="2.313" height="2.507" transform="translate(22.143 10.584)" fill="#fff"/>
    <rect id="Rectangle_11" data-name="Rectangle 11" width="2.313" height="2.507" transform="translate(22.143 14.549)" fill="#fff"/>
    <rect id="Rectangle_12" data-name="Rectangle 12" width="2.313" height="2.507" transform="translate(22.143 18.514)" fill="#fff"/>
    <path id="Path_34" data-name="Path 34" d="M3.546,5.3V22.488l15.137,1.681V3.62ZM15.264,19.114H12.4l-1.683-3.07L9.078,18.818H6.418L9.442,13.9,6.418,8.971H9.033l1.591,2.638,1.843-2.934h2.8l-3.16,5.3Z" transform="translate(1.868 1.907)" fill="#fff"/>
  </g>
</svg>
