<svg xmlns="http://www.w3.org/2000/svg" viewBox="0 0 15 15"><defs><style>.cls-1{fill:#b2c3ce;}</style></defs><title>Password_icon</title><g id="Layer_2" data-name="Layer 2"><g id="Base"><path class="cls-1" d="M10,0A5,5,0,0,0,5,5a4.92,4.92,0,0,0,.1,1l-.55.28a.31.31,0,0,0-.17.23.28.28,0,0,0,.09.27l.4.41-.31.31h-.5a.31.31,0,0,0-.31.31v.5l-.44.44h-.5a.31.31,0,0,0-.31.31v.5L2.06,10h-.5a.31.31,0,0,0-.31.31v.5L.09,12a.31.31,0,0,0-.09.22v2.5A.31.31,0,0,0,.31,15h2.5A.32.32,0,0,0,3,14.9l4.78-4.77.4.4a.33.33,0,0,0,.28.09.32.32,0,0,0,.22-.17L9,9.89A5,5,0,1,0,10,0ZM6.78,8.66,2.41,13A.31.31,0,0,1,2,13a.3.3,0,0,1,0-.44L6.34,8.21a.31.31,0,0,1,.44,0A.33.33,0,0,1,6.78,8.66ZM11.56,5a1.57,1.57,0,1,1,1.56-1.56A1.56,1.56,0,0,1,11.56,5Z"/></g></g></svg>