<svg id="Password" xmlns="http://www.w3.org/2000/svg" xmlns:xlink="http://www.w3.org/1999/xlink" width="17.138" height="17.138" viewBox="0 0 17.138 17.138">
  <defs>
    <clipPath id="clip-path">
      <rect id="Rectangle_46" data-name="Rectangle 46" width="17.138" height="17.138" transform="translate(0 0)" fill="#bfbfbf"/>
    </clipPath>
  </defs>
  <g id="Group_58" data-name="Group 58" transform="translate(0 0)" clip-path="url(#clip-path)">
    <path id="Path_44" data-name="Path 44" d="M11.426,0A5.692,5.692,0,0,0,5.834,6.86L5.2,7.179a.357.357,0,0,0-.093.572l.462.461-.357.357H4.642a.357.357,0,0,0-.357.357v.567L3.78,10H3.214a.356.356,0,0,0-.357.357v.566l-.505.505H1.785a.357.357,0,0,0-.357.357v.566L.1,13.673a.356.356,0,0,0-.1.252v2.856a.357.357,0,0,0,.357.358H3.214a.357.357,0,0,0,.252-.1l5.46-5.46.462.461a.35.35,0,0,0,.31.1.356.356,0,0,0,.262-.192l.319-.639A5.71,5.71,0,1,0,11.426,0M7.751,9.893l-5,5a.357.357,0,0,1-.505-.505l5-5a.357.357,0,0,1,.505.505m5.46-4.18A1.785,1.785,0,1,1,15,3.928a1.787,1.787,0,0,1-1.785,1.785" fill="#bfbfbf"/>
  </g>
</svg>
