<svg xmlns="http://www.w3.org/2000/svg" viewBox="0 0 28 28"><defs><style>.cls-1{fill:#e1f4ff;}.cls-2{fill:#3e5a7f;}</style></defs><title>Profile_icon</title><g id="Layer_2" data-name="Layer 2"><g id="Base"><rect class="cls-1" width="28" height="28" rx="3"/><path class="cls-2" d="M17,17.92a19,19,0,0,1,0-2.11,4.07,4.07,0,0,0,1.13-2.44c.29,0,.74-.31.87-1.41a1,1,0,0,0-.38-1C19,9.52,20,5.18,16.74,4.73a2.52,2.52,0,0,0-2.29-.88c-4.42.08-5,3.34-4,7.08a1,1,0,0,0-.38,1c.13,1.1.58,1.38.87,1.41a4.07,4.07,0,0,0,1.16,2.44c0,.74,0,1.3,0,2.11-.88,2.35-6.79,1.69-7.06,6.23H24C23.73,19.61,17.84,20.27,17,17.92Z"/></g></g></svg>