<svg id="User" xmlns="http://www.w3.org/2000/svg" xmlns:xlink="http://www.w3.org/1999/xlink" width="16.62" height="18.197" viewBox="0 0 16.62 18.197">
  <defs>
    <clipPath id="clip-path">
      <rect id="Rectangle_44" data-name="Rectangle 44" width="16.62" height="18.197" transform="translate(0 0)" fill="#bfbfbf"/>
    </clipPath>
  </defs>
  <g id="Group_56" data-name="Group 56" transform="translate(0 0)" clip-path="url(#clip-path)">
    <path id="Path_43" data-name="Path 43" d="M15.934,14.357c-1.271-2.413-2.543-2.028-3.939-2.159-.548-.034-1.916-.12-1.926-.932-.01-.764,1.038-.718,1.8-2.114a12.6,12.6,0,0,0,.762-5.411c0-.048-.022-.329-.082-.7a2.618,2.618,0,0,0-.182-.646h0C11.985,1.141,10.726.017,8.354,0V0a.162.162,0,0,0-.022,0L8.31,0V0C5.938.017,4.679,1.141,4.3,2.4h0a2.618,2.618,0,0,0-.182.646c-.06.367-.079.648-.082.7a12.6,12.6,0,0,0,.762,5.411c.764,1.4,1.812,1.35,1.8,2.114-.01.812-1.378.9-1.926.932C3.273,12.329,2,11.944.73,14.357A10.034,10.034,0,0,0,0,17.085c-.26,1.614,16.906,1.427,16.613-.268a9.187,9.187,0,0,0-.682-2.46" fill="#bfbfbf"/>
  </g>
</svg>
