<svg xmlns="http://www.w3.org/2000/svg" viewBox="0 0 14.3 15.65"><defs><style>.cls-1{fill:#b2c3ce;}</style></defs><title>User_icon</title><g id="Layer_2" data-name="Layer 2"><g id="Base"><path class="cls-1" d="M13.71,12.35c-1.1-2.08-2.19-1.75-3.39-1.86-.47,0-1.65-.1-1.66-.8s.89-.62,1.55-1.82a10.8,10.8,0,0,0,.66-4.65s0-.29-.07-.6a2.34,2.34,0,0,0-.16-.56h0C10.31,1,9.23,0,7.19,0h0C5.11,0,4,1,3.7,2.06h0a2.73,2.73,0,0,0-.15.56,5.86,5.86,0,0,0-.07.6,10.87,10.87,0,0,0,.65,4.65C4.78,9.07,5.68,9,5.67,9.69s-1.18.77-1.65.8c-1.2.11-2.3-.22-3.39,1.86A8.3,8.3,0,0,0,0,14.7c-.22,1.38,14.54,1.22,14.29-.24A7.7,7.7,0,0,0,13.71,12.35Z"/></g></g></svg>